<?xml version="1.0" encoding="UTF-8"?>
<svg xmlns="http://www.w3.org/2000/svg" xmlns:xlink="http://www.w3.org/1999/xlink" width="288pt" height="144pt" viewBox="0 0 288 144" version="1.1">
<g id="surface29">
<rect x="0" y="0" width="288" height="144" style="fill:rgb(100%,100%,100%);fill-opacity:1;stroke:none;"/>
<path style=" stroke:none;fill-rule:nonzero;fill:rgb(34.901961%,34.901961%,34.901961%);fill-opacity:1;" d="M 13.089844 137.453125 L 28.492188 137.453125 L 28.492188 76.363281 L 13.089844 76.363281 Z M 13.089844 137.453125 "/>
<path style=" stroke:none;fill-rule:nonzero;fill:rgb(34.901961%,34.901961%,34.901961%);fill-opacity:1;" d="M 28.492188 137.453125 L 43.894531 137.453125 L 43.894531 6.542969 L 28.492188 6.542969 Z M 28.492188 137.453125 "/>
<path style=" stroke:none;fill-rule:nonzero;fill:rgb(34.901961%,34.901961%,34.901961%);fill-opacity:1;" d="M 43.894531 137.453125 L 59.296875 137.453125 L 59.296875 58.90625 L 43.894531 58.90625 Z M 43.894531 137.453125 "/>
<path style=" stroke:none;fill-rule:nonzero;fill:rgb(34.901961%,34.901961%,34.901961%);fill-opacity:1;" d="M 59.292969 137.453125 L 74.695312 137.453125 L 74.695312 38.542969 L 59.292969 38.542969 Z M 59.292969 137.453125 "/>
<path style=" stroke:none;fill-rule:nonzero;fill:rgb(34.901961%,34.901961%,34.901961%);fill-opacity:1;" d="M 74.695312 137.453125 L 90.097656 137.453125 L 90.097656 70.542969 L 74.695312 70.542969 Z M 74.695312 137.453125 "/>
<path style=" stroke:none;fill-rule:nonzero;fill:rgb(34.901961%,34.901961%,34.901961%);fill-opacity:1;" d="M 90.097656 137.453125 L 105.5 137.453125 L 105.5 99.636719 L 90.097656 99.636719 Z M 90.097656 137.453125 "/>
<path style=" stroke:none;fill-rule:nonzero;fill:rgb(34.901961%,34.901961%,34.901961%);fill-opacity:1;" d="M 105.496094 137.453125 L 120.898438 137.453125 L 120.898438 105.453125 L 105.496094 105.453125 Z M 105.496094 137.453125 "/>
<path style=" stroke:none;fill-rule:nonzero;fill:rgb(34.901961%,34.901961%,34.901961%);fill-opacity:1;" d="M 120.898438 137.453125 L 136.300781 137.453125 L 136.300781 117.089844 L 120.898438 117.089844 Z M 120.898438 137.453125 "/>
<path style=" stroke:none;fill-rule:nonzero;fill:rgb(34.901961%,34.901961%,34.901961%);fill-opacity:1;" d="M 136.300781 137.453125 L 151.703125 137.453125 L 151.703125 120 L 136.300781 120 Z M 136.300781 137.453125 "/>
<path style=" stroke:none;fill-rule:nonzero;fill:rgb(34.901961%,34.901961%,34.901961%);fill-opacity:1;" d="M 151.699219 137.453125 L 167.101562 137.453125 L 167.101562 120 L 151.699219 120 Z M 151.699219 137.453125 "/>
<path style=" stroke:none;fill-rule:nonzero;fill:rgb(34.901961%,34.901961%,34.901961%);fill-opacity:1;" d="M 167.101562 137.453125 L 182.503906 137.453125 L 182.503906 131.636719 L 167.101562 131.636719 Z M 167.101562 137.453125 "/>
<path style=" stroke:none;fill-rule:nonzero;fill:rgb(34.901961%,34.901961%,34.901961%);fill-opacity:1;" d="M 182.503906 137.453125 L 197.90625 137.453125 L 197.90625 131.636719 L 182.503906 131.636719 Z M 182.503906 137.453125 "/>
<path style=" stroke:none;fill-rule:nonzero;fill:rgb(34.901961%,34.901961%,34.901961%);fill-opacity:1;" d="M 213.304688 137.453125 L 228.707031 137.453125 L 228.707031 134.542969 L 213.304688 134.542969 Z M 213.304688 137.453125 "/>
<path style=" stroke:none;fill-rule:nonzero;fill:rgb(34.901961%,34.901961%,34.901961%);fill-opacity:1;" d="M 244.105469 137.453125 L 259.507812 137.453125 L 259.507812 134.542969 L 244.105469 134.542969 Z M 244.105469 137.453125 "/>
<path style=" stroke:none;fill-rule:nonzero;fill:rgb(34.901961%,34.901961%,34.901961%);fill-opacity:1;" d="M 259.507812 137.453125 L 274.910156 137.453125 L 274.910156 134.542969 L 259.507812 134.542969 Z M 259.507812 137.453125 "/>
<path style="fill:none;stroke-width:4.267913;stroke-linecap:round;stroke-linejoin:round;stroke:rgb(0%,0%,0%);stroke-opacity:1;stroke-miterlimit:10;" d="M 0 144 L 288 144 "/>
</g>
</svg>
